<?xml version="1.0" encoding="utf-8"?>
<!-- Generator: Adobe Illustrator 25.4.1, SVG Export Plug-In . SVG Version: 6.00 Build 0)  -->
<svg version="1.1" id="Laag_1" xmlns="http://www.w3.org/2000/svg" xmlns:xlink="http://www.w3.org/1999/xlink" x="0px" y="0px"
	 viewBox="0 0 260.04 104.85" style="enable-background:new 0 0 260.04 104.85;" xml:space="preserve">
<style type="text/css">
	.st0{fill:#063961;stroke:#063C65;stroke-width:2.0521;stroke-miterlimit:10;}
	.st1{fill:#27AD7A;stroke:#27AD7A;stroke-width:2.0521;stroke-miterlimit:10;}
	.st2{fill:none;stroke:#27AD7A;stroke-width:7;stroke-miterlimit:10;}
</style>
<path class="st0" d="M51.79,68.17h-1.48c-0.67,0-1.12-0.41-1.12-1.03V52.6l-2.46-2.26c-0.72-0.66-0.67-1.31-0.04-1.89l0.54-0.49
	c0.63-0.57,1.39-0.49,1.97,0.04l2.64,2.42c1.25-2.01,3.54-3.12,6.58-3.12c3.36,0,5.91,1.19,7.3,3.37c1.25-2.18,3.58-3.37,6.81-3.37
	c5.24,0,8.51,2.83,8.51,7.76v12.08c0,0.62-0.45,1.03-1.12,1.03h-1.52c-0.67,0-1.12-0.41-1.12-1.03V55.07c0-3.2-1.79-4.93-5.1-4.93
	c-3.4,0-5.19,1.72-5.19,4.93v12.08c0,0.62-0.45,1.03-1.12,1.03h-1.48c-0.67,0-1.12-0.41-1.12-1.03V55.07c0-3.2-1.84-4.93-5.15-4.93
	c-3.36,0-5.19,1.72-5.19,4.93v12.08C52.91,67.76,52.51,68.17,51.79,68.17z"/>
<path class="st0" d="M89.4,60.65v-5.38c0-5.18,3.54-7.97,9.54-7.97c6.04,0,9.58,2.79,9.58,7.97v5.38c0,5.18-3.54,7.97-9.54,7.97
	C92.93,68.62,89.4,65.83,89.4,60.65z M104.71,60.9v-5.92c0-3.25-2.01-4.93-5.78-4.93c-3.72,0-5.78,1.68-5.78,4.93v5.92
	c0,3.29,2.06,4.97,5.82,4.97C102.69,65.87,104.71,64.19,104.71,60.9z"/>
<path class="st0" d="M120.51,66.03v0.86c0,0.95-0.58,1.56-1.61,1.56h-0.13c-1.03,0-1.66-0.62-1.66-1.56V40.4
	c0-0.86,0.63-1.44,1.57-1.44h0.58c0.98,0,1.57,0.58,1.57,1.44v9.16c1.34-1.48,3.45-2.26,6.22-2.26c5.46,0,9.04,3,9.04,8.05v5.22
	c0,5.05-3.58,8.05-9.04,8.05C124.09,68.62,121.85,67.72,120.51,66.03z M132.28,60.82v-5.71c0-3.29-2.01-5.05-5.73-5.05
	c-3.67,0-5.73,1.77-5.73,5.05v5.71c0,3.29,2.06,5.05,5.73,5.05C130.27,65.87,132.28,64.1,132.28,60.82z"/>
<path class="st0" d="M145.62,63.53V50.55h-3.27c-0.54,0-0.94-0.33-0.94-0.82v-1.15c0-0.49,0.4-0.82,0.94-0.82h5.6
	c0.98,0,1.43,0.37,1.43,1.27v14.25c0,1.56,0.4,2.01,1.88,2.01h1.7c0.54,0,0.9,0.33,0.9,0.82v1.15c0,0.58-0.36,0.9-0.98,0.9H151
	C146.97,68.17,145.62,66.86,145.62,63.53z"/>
<path class="st1" d="M144.95,42.74v-1.89c0-0.99,0.63-1.56,1.66-1.56h1.12c1.03,0,1.66,0.58,1.66,1.56v1.89
	c0,0.99-0.63,1.56-1.66,1.56h-1.12C145.58,44.31,144.95,43.73,144.95,42.74z"/>
<path class="st0" d="M157.44,56.5v-0.37c0-0.78,0.58-1.31,1.48-1.31h8.28c0.9,0,1.48,0.49,1.48,1.27v0.37
	c0,0.78-0.58,1.31-1.48,1.31h-8.28C158.03,57.78,157.44,57.24,157.44,56.5z"/>
<path class="st0" d="M176.51,67.14v-26.7c0-0.62,0.45-1.03,1.12-1.03h1.57c0.67,0,1.12,0.41,1.12,1.03v26.7
	c0,0.62-0.45,1.03-1.12,1.03h-1.57C176.96,68.17,176.51,67.76,176.51,67.14z"/>
<path class="st0" d="M190.97,66.53V41.06c0-1.03,0.67-1.64,1.79-1.64h7.21c8.73,0,13.3,3.45,13.3,11.21v6.33
	c0,7.76-4.57,11.21-13.3,11.21h-7.21C191.65,68.17,190.97,67.55,190.97,66.53z M200.02,65.3c6.22,0,9.4-2.38,9.4-8.22v-6.57
	c0-5.83-3.18-8.21-9.4-8.21h-5.24v23H200.02z"/>
<path class="st2" d="M236.56,88.08H26.84c-4.98,0-9.06-4.08-9.06-9.06V30.03c0-4.98,4.08-9.06,9.06-9.06h209.72
	c4.98,0,9.06,4.08,9.06,9.06v48.98C245.62,84,241.55,88.08,236.56,88.08z"/>
</svg>
